PathFileType	4	(X/Y/Z)	C:\Users\Basilio\Documents\Thesis Gigler\squatting_fais\c3dfiles\038\SJ_pre1\markers_experimental.trc
DataRate	CameraRate	NumFrames	NumMarkers	Units	OrigDataRate	OrigDataStartFrame	OrigNumFrames
200.000000	200.000000	4	61	mm	200.000000	683	1366
Frame#	Time	FHD			LBHD			RBHD			C7			T10			CLAV			LSHO			LUUPA			LMUPA			LDUPA			LLEP			LMEP			LRAD			LUL			LRFIN			RSHO			RUPA1			RMUPA			RDUPA			RLEP			RMEP			RRAD			RUL			RUFIN			LASI			RASI			USACR			LSACR			RSACR			LTHI1			LTHI2			LTHI3			LTHI4			LLFC			LMFC			LTIB1			LTIB2			LTIB3			LTIB4			LLMAL			LMMAL			LHEE			LMT1			LMT2			LMT5			RTHI			RTHI2			RTHI3			RTHI4			RLFC			RMFC			RTIB1			RTIB2			RTIB3			RTIB4			RLMAL			RMMAL			RHEE			RMT1			RMT2			RMT5			
		X1	Y1	Z1	X2	Y2	Z2	X3	Y3	Z3	X4	Y4	Z4	X5	Y5	Z5	X6	Y6	Z6	X7	Y7	Z7	X8	Y8	Z8	X9	Y9	Z9	X10	Y10	Z10	X11	Y11	Z11	X12	Y12	Z12	X13	Y13	Z13	X14	Y14	Z14	X15	Y15	Z15	X16	Y16	Z16	X17	Y17	Z17	X18	Y18	Z18	X19	Y19	Z19	X20	Y20	Z20	X21	Y21	Z21	X22	Y22	Z22	X23	Y23	Z23	X24	Y24	Z24	X25	Y25	Z25	X26	Y26	Z26	X27	Y27	Z27	X28	Y28	Z28	X29	Y29	Z29	X30	Y30	Z30	X31	Y31	Z31	X32	Y32	Z32	X33	Y33	Z33	X34	Y34	Z34	X35	Y35	Z35	X36	Y36	Z36	X37	Y37	Z37	X38	Y38	Z38	X39	Y39	Z39	X40	Y40	Z40	X41	Y41	Z41	X42	Y42	Z42	X43	Y43	Z43	X44	Y44	Z44	X45	Y45	Z45	X46	Y46	Z46	X47	Y47	Z47	X48	Y48	Z48	X49	Y49	Z49	X50	Y50	Z50	X51	Y51	Z51	X52	Y52	Z52	X53	Y53	Z53	X54	Y54	Z54	X55	Y55	Z55	X56	Y56	Z56	X57	Y57	Z57	X58	Y58	Z58	X59	Y59	Z59	X60	Y60	Z60	X61	Y61	Z61	

684	3.415	8.205458641052248	1162.185424804688	-936.3769531250002	-145.3238067626953	1094.091430664063	-989.1893310546877	-127.3140640258789	1084.357666015625	-843.9332275390627	-177.963623046875	986.122009277344	-904.0596923828127	-374.4922485351563	791.7690429687502	-887.9635009765627	-74.23008728027345	879.6763305664065	-928.146179199219	-95.03394317626955	938.6502075195315	-1083.043212890625	-176.2228393554688	840.9255981445315	-1279.512573242188	-170.719467163086	792.2119750976565	-1267.425415039063	-198.9360351562501	787.965759277344	-1319.172729492188	-230.4656982421876	736.0665283203126	-1342.68603515625	-304.9522094726563	776.045104980469	-1353.212280273438	-418.8437805175782	641.9908447265626	-1120.524658203125	-367.7088317871094	593.7423095703126	-1144.266235351563	-404.5733947753907	622.3173217773439	-1046.459594726563	-40.36069869995118	921.2114868164065	-774.792663574219	-68.11386108398439	797.8179931640627	-588.1069946289064	-85.2648391723633	753.2796630859376	-594.6771240234376	-90.69642639160158	756.5485839843751	-534.8952026367189	-127.5684814453125	702.1914062500001	-497.848846435547	-194.4894714355469	747.3744506835939	-466.5341796875001	-322.2337951660157	631.3885498046876	-687.0683593750001	-270.8983459472657	582.7915649414064	-686.0643310546876	-338.4253540039063	605.4909667968751	-765.0234375000001	-384.8083496093751	582.9258422851564	-1011.357849121094	-355.7540588378907	581.4560546875001	-758.9629516601564	-504.2906799316407	686.7659301757814	-869.9421997070315	-536.6174316406251	665.7380981445314	-892.6922607421877	-525.0282592773439	666.5570678710939	-837.025329589844	-341.5607910156251	524.2496337890626	-1173.959838867188	-263.3156127929688	529.0823364257814	-1213.819580078125	-236.5225524902344	560.2614746093751	-1188.209594726563	-232.9011993408204	480.1551513671876	-1236.001220703125	-185.9866027832032	449.5924682617189	-1249.170776367188	-135.8372192382813	432.8603515625001	-1145.727172851563	-171.3113098144532	278.4285583496094	-1169.7353515625	-246.3051757812501	252.9665679931641	-1210.6611328125	-210.4379577636719	238.9420928955079	-1190.406372070313	-239.7303619384766	175.2562103271485	-1141.147583007813	-369.5362854003907	81.97007751464845	-1122.29296875	-309.3194274902344	97.33752441406253	-1061.983642578125	-404.8924255371095	44.04370117187501	-1055.0537109375	-204.3871612548829	45.10045623779298	-1123.858154296875	-217.4204559326172	50.49763488769533	-1173.168823242188	-270.5424194335938	31.29951858520509	-1204.767700195313	-310.8719482421876	493.2865600585939	-649.3443603515626	-246.6006317138672	503.3778381347657	-633.6223754882814	-230.3173522949219	533.3311767578126	-641.8819580078126	-188.0017852783203	439.7078857421876	-627.1129760742189	-97.08377838134768	403.1894836425782	-623.3099365234376	-76.52078247070314	399.622528076172	-740.3811645507814	-120.8219146728516	248.8724975585938	-666.5722656250001	-236.2914581298829	222.6000671386719	-656.2928466796876	-193.5903472900391	202.7025756835938	-661.1177978515626	-204.0683593750001	154.8946990966797	-693.2498779296876	-330.0706787109376	89.81556701660158	-693.1571655273439	-278.5171508789063	83.03108215332033	-762.8825683593751	-378.1380310058594	40.65021896362305	-772.746276855469	-179.0481109619141	46.84321594238282	-679.3709716796876	-199.3067169189454	53.64376831054689	-638.4289550781251	-256.7223510742188	37.50411987304688	-612.0444946289064	
685	3.42	8.13223457336426	1161.976196289063	-936.258972167969	-145.4125671386719	1093.899047851563	-989.2150878906252	-127.4209213256836	1084.09375	-843.9497070312502	-178.0087432861328	985.990661621094	-903.9855957031252	-374.6321411132813	791.6196899414065	-887.9885253906252	-74.38811492919923	879.4766845703127	-928.140319824219	-95.08009338378908	938.413269042969	-1083.055786132813	-176.1907653808594	840.7280883789065	-1279.567138671875	-170.7087097167969	792.0437622070315	-1267.427612304688	-198.9603271484376	787.7418212890627	-1319.1337890625	-230.769515991211	736.2963256835939	-1342.677856445313	-305.0095520019532	775.9006347656252	-1353.209228515625	-418.9855041503907	641.8955078125001	-1120.6357421875	-367.7530212402344	593.5465698242189	-1144.30517578125	-404.7341918945314	622.2123413085939	-1046.446411132813	-40.41498947143555	920.9558715820315	-774.7972412109377	-68.15625762939455	797.6110839843752	-588.1851196289064	-85.38620758056642	753.0520629882814	-594.6975708007814	-90.86193084716798	756.2971191406251	-534.9339599609376	-127.7571487426758	702.0238647460939	-497.8574829101564	-194.6006164550782	747.2109985351564	-466.4988098144532	-322.4152221679688	631.3099975585939	-687.0789184570314	-271.1351013183594	582.7962646484376	-686.1635742187501	-338.5802612304688	605.4718017578126	-765.0634765625001	-385.0870666503907	582.4820556640626	-1011.421691894531	-355.9630737304688	581.1636962890626	-759.0201416015626	-504.4337768554689	686.5886840820314	-870.0747070312502	-536.7673339843751	665.5904541015626	-892.7778930664065	-525.1781005859376	666.4327392578126	-837.122985839844	-341.6694641113282	524.2036743164064	-1173.942626953125	-263.3940124511719	529.0275878906251	-1213.82080078125	-236.5551300048829	560.2376098632814	-1188.208984375	-232.3191375732422	479.4857177734376	-1235.76708984375	-185.9923858642578	449.6097412109376	-1249.130004882813	-135.8957061767578	432.8206176757814	-1145.723999023438	-171.3554229736328	278.4461059570313	-1169.6884765625	-246.2198791503907	252.8256072998047	-1210.644287109375	-210.4377899169922	238.9547424316407	-1190.427734375	-239.7339630126954	175.2717437744141	-1141.16259765625	-369.5368041992188	81.97616577148439	-1122.287841796875	-309.3418273925782	97.31317901611331	-1062.015502929688	-404.906219482422	44.02430725097657	-1055.0458984375	-204.140365600586	45.59517288208009	-1124.0966796875	-217.4450378417969	50.53028488159181	-1173.163208007813	-270.5598449707032	31.33075141906739	-1204.75390625	-311.0346679687501	493.3067626953126	-649.3246459960939	-246.8043365478516	503.4233703613282	-633.6223754882814	-230.4921264648438	533.3147583007814	-641.9332275390626	-188.168701171875	439.847869873047	-627.0686035156251	-97.25195312500003	403.2481689453126	-623.3718872070314	-76.67835235595705	399.687469482422	-740.3746337890626	-120.8664016723633	248.9295806884766	-666.5985107421876	-236.3920288085938	222.6931152343751	-656.2918701171876	-193.6674194335938	202.7860107421876	-661.1074829101564	-204.137435913086	154.9408416748047	-693.2663574218751	-330.0912170410157	89.85520935058595	-693.1502685546876	-278.5092468261719	83.01779174804689	-762.8707275390626	-378.1426391601563	40.6438217163086	-772.7791748046877	-179.0762939453125	46.93237686157227	-679.3854370117189	-199.2513732910157	53.67974853515626	-638.4053955078126	-256.7200927734376	37.49083328247071	-612.0699462890626	
686	3.425	8.001879692077638	1161.730590820313	-936.261901855469	-145.4959259033203	1093.638427734375	-989.2592773437502	-127.5562133789063	1083.876831054688	-843.944274902344	-178.0844421386719	985.769958496094	-904.0090942382815	-374.5053405761719	791.7750244140627	-887.9371337890627	-74.50038146972658	879.2770996093752	-928.2048339843752	-95.20153808593751	938.2500000000002	-1083.06201171875	-176.2230072021485	840.4752197265627	-1279.558471679688	-170.8224487304688	792.0058593750002	-1267.356079101563	-198.9657135009766	787.560241699219	-1319.14208984375	-230.8532409667969	736.1093750000001	-1342.729248046875	-305.0737609863282	775.7427368164065	-1353.258056640625	-418.9950256347657	641.7451171875001	-1120.652465820313	-367.9478759765626	593.4196777343751	-1144.287719726563	-404.8476562500001	622.1808471679689	-1046.515502929688	-40.43526077270509	920.6641235351565	-774.8245239257815	-68.24571990966798	797.2942504882815	-588.1707763671876	-85.46495819091798	752.7684936523439	-594.6572265625001	-90.95307922363283	756.0432128906251	-534.9004516601564	-127.9631042480469	701.8352050781251	-497.8218688964845	-194.7193908691407	747.1088867187501	-466.4910583496095	-322.6618652343751	631.2552490234376	-687.0972900390626	-271.4289550781251	582.7108154296876	-686.1585083007814	-338.8425598144532	605.4432373046876	-765.0305175781251	-387.1740112304689	580.0618286132814	-1011.735412597656	-357.7499694824219	577.6345825195314	-759.3629760742189	-504.6268920898439	685.9015502929689	-869.9739379882815	-537.0293579101564	665.7976074218751	-892.689880371094	-525.3814086914064	666.2994995117189	-837.135437011719	-341.6765441894532	524.1406250000001	-1173.901123046875	-263.4265747070313	528.9997558593751	-1213.832397460938	-236.5791473388672	560.2380981445314	-1188.212158203125	-232.3836212158204	479.5450744628907	-1235.788208007813	-185.9898071289063	449.6680297851564	-1249.132202148438	-135.8755340576172	432.809539794922	-1145.684814453125	-171.3587951660157	278.4506835937501	-1169.668579101563	-246.1815490722657	252.8936614990235	-1210.649658203125	-210.4347381591797	238.9728546142579	-1190.4267578125	-239.7658386230469	175.305160522461	-1141.159790039063	-369.5217285156251	81.95366668701173	-1122.277221679688	-309.3436279296876	97.32839202880862	-1062.022705078125	-404.8880310058595	43.98807525634766	-1055.040161132813	-204.1785125732422	45.54312896728516	-1124.060302734375	-217.4356231689454	50.49887466430665	-1173.15869140625	-270.6672668457032	31.45470046997071	-1204.782592773438	-311.2739257812501	493.3081054687501	-649.3836669921876	-246.9679565429688	503.4808044433595	-633.6265869140626	-230.6623535156251	533.3836059570314	-641.9620971679689	-188.2784423828125	439.7941894531251	-627.1562500000001	-97.32028961181643	403.2727661132814	-623.3842163085939	-76.88175201416017	399.7840881347657	-740.3937377929689	-120.9455871582032	249.0184631347657	-666.6344604492189	-236.4163818359376	222.7525482177735	-656.3013305664064	-193.6902923583985	202.8299713134766	-661.1089477539064	-204.163803100586	155.0010528564453	-693.2321777343751	-330.1211242675782	89.85421752929689	-693.1785278320314	-278.5380554199219	83.06027221679689	-762.8912353515626	-378.1122131347657	40.60683822631837	-772.7585449218752	-179.0787811279297	46.86705398559571	-679.3972167968751	-199.2810363769532	53.67928695678712	-638.4309692382814	-256.6746826171876	37.49801635742188	-612.0274658203126	
687	3.43	8.012702941894533	1161.528930664063	-936.233825683594	-145.574951171875	1093.508911132813	-989.2420043945315	-127.5952224731446	1083.678833007813	-843.9843750000002	-178.1009368896485	985.6230468750002	-904.041442871094	-374.6644287109376	791.6088867187502	-887.930358886719	-74.56786346435548	879.1221923828127	-928.2463989257815	-95.22554779052736	938.0032958984377	-1083.091552734375	-176.223617553711	840.3909912109377	-1279.652709960938	-170.9269256591797	791.8587036132815	-1267.350708007813	-199.0032653808594	787.3292236328127	-1319.145629882813	-230.8750152587891	735.8866577148439	-1342.734008789063	-305.1338806152344	775.543884277344	-1353.2744140625	-419.1667480468751	641.6654052734376	-1120.728271484375	-367.9999084472657	593.3583984375001	-1144.324096679688	-404.8977355957032	622.0504760742189	-1046.647827148438	-40.38745880126954	920.4360351562502	-774.7398071289065	-68.34708404541017	796.937927246094	-588.1919555664064	-85.58857727050783	752.4732666015626	-594.6864013671876	-91.03836059570314	755.8513183593751	-534.9109497070314	-128.1468963623047	701.6444702148439	-497.782928466797	-194.7827911376954	746.9483642578126	-466.4505310058595	-322.8696289062501	631.1830444335939	-687.1219482421876	-271.6796569824219	582.7083129882814	-686.1890869140626	-339.0599670410157	605.4229736328126	-764.9812011718751	-385.9985961914064	580.2370605468751	-1010.836975097656	-357.6360168457032	579.0249633789064	-758.3203735351564	-504.7910766601564	685.8398437500001	-869.986267089844	-537.0441894531251	665.3491210937501	-892.8591308593752	-525.5809326171876	666.1886596679689	-837.1389770507815	-341.7586669921876	524.1213378906251	-1173.916381835938	-263.5049438476563	528.9755859375001	-1213.822998046875	-236.6463317871094	560.2398681640626	-1188.210205078125	-232.3899078369141	479.5123596191407	-1235.789306640625	-185.9957275390625	449.6505737304689	-1249.067504882813	-135.9394226074219	432.850311279297	-1145.668701171875	-171.3256225585938	278.4866333007813	-1169.742553710938	-246.176010131836	252.8892974853516	-1210.65087890625	-210.5006408691407	238.9868774414063	-1190.388671875	-239.7730712890626	175.2527770996094	-1141.160888671875	-369.5720520019532	81.97871398925783	-1122.318237304688	-309.3854675292969	97.34446716308597	-1061.964233398438	-404.8506164550782	44.04550170898438	-1055.083862304688	-204.1789093017579	45.59510040283204	-1124.060668945313	-217.4426727294922	50.5380325317383	-1173.16259765625	-270.7005004882813	31.44492912292481	-1204.77099609375	-311.5141906738282	493.3011779785157	-649.3093872070314	-247.1247253417969	503.5386352539064	-633.5794067382814	-230.7959442138672	533.3537597656251	-641.9909667968751	-188.4683837890625	439.9437561035157	-627.1368408203126	-97.51200103759768	403.3069763183595	-623.3483276367189	-76.9757766723633	399.937713623047	-740.3884887695314	-120.9828872680664	249.0917510986329	-666.6581420898439	-236.4644317626954	222.7533416748047	-656.2704467773439	-193.7366790771485	202.8771667480469	-661.1116333007814	-204.1724243164063	154.9879760742188	-693.2227783203126	-330.1082458496094	89.86932373046876	-693.1397094726564	-278.4968261718751	83.07735443115236	-762.8836669921876	-378.1533203125001	40.63378906250001	-772.7647705078127	-179.1144104003907	46.88665771484376	-679.4178466796876	-199.2830657958985	53.67760086059572	-638.4322509765626	-256.7101745605469	37.47484207153321	-612.0270385742189	
